Patient4_TMGait_0pt4_01_left_20_GRF.mot
version=1
nRows=52
nColumns=19
inDegrees=no
endheader
time	F1x	F1y	F1z	M1x	M1y	M1z	F2x	F2y	F2z	M2x	M2y	M2z	EC1x	EC1y	EC1z	EC2x	EC2y	EC2z
23.93	-9.3048	32.9111	-1.5907	-12.3154	-2.668	30.9108	-2.4221	743.6312	-69.3304	330.3585	54.5984	602.1639	-0.0592	0.0182	-0.0073	-0.0462	0.0165	0.9585
23.9424	-7.7323	29.9856	-0.6243	-11.8564	-2.8344	26.6612	-1.2522	747.901	-68.6744	331.8812	53.4999	605.4941	-0.0592	0.0182	-0.0073	-0.0462	0.0165	0.9585
23.9547	-6.3153	27.6904	0.19385	-11.5469	-2.9434	23.1935	0.10491	752.328	-67.9983	333.5193	52.2127	608.0531	-0.0592	0.0182	-0.0073	-0.0462	0.0165	0.9585
23.9671	-5.0923	26.1633	0.81781	-11.4116	-2.9671	20.7	1.6201	756.4322	-67.3204	335.0845	50.7677	609.4336	-0.0592	0.0182	-0.0073	-0.0462	0.0165	0.9585
23.9794	-4.0528	25.3626	1.2442	-11.4357	-2.8968	19.1434	3.2887	759.8172	-66.6211	336.4055	49.1613	609.4196	-0.0592	0.0182	-0.0073	-0.0462	0.0165	0.9585
23.9918	-3.171	25.1608	1.5039	-11.5847	-2.7433	18.3598	5.0893	762.1833	-65.9174	337.34	47.435	607.9336	-0.0592	0.0182	-0.0073	-0.0462	0.0165	0.9585
24.0041	-2.3932	25.3909	1.6515	-11.8166	-2.5316	18.1358	6.9886	763.3491	-65.2161	337.7923	45.6349	605.029	-0.0592	0.0182	-0.0073	-0.0462	0.0165	0.9585
24.0165	-1.6931	25.8705	1.7297	-12.0905	-2.282	18.2501	8.9554	763.2328	-64.5476	337.7157	43.826	600.8147	-0.0592	0.0182	-0.0073	-0.0462	0.0165	0.9585
24.0289	-1.0328	26.4477	1.7973	-12.3748	-2.0316	18.5019	10.9615	761.8598	-63.9163	337.1116	42.0416	595.4386	-0.0592	0.0182	-0.0073	-0.0462	0.0165	0.9585
24.0412	-0.40599	26.9868	1.8755	-12.6413	-1.7901	18.7342	13.0136	759.3184	-63.3254	336.0099	40.3007	589.0625	-0.0592	0.0182	-0.0073	-0.0462	0.0165	0.9585
24.0536	0.20518	27.3441	1.9965	-12.8543	-1.5769	18.7784	15.1113	755.7009	-62.745	334.4458	38.5836	581.83	-0.0592	0.0182	-0.0073	-0.0462	0.0165	0.9585
24.0659	0.78953	27.411	2.1576	-12.9831	-1.3841	18.5241	17.2825	751.0879	-62.1634	332.4504	36.8743	573.8526	-0.0592	0.0182	-0.0073	-0.0462	0.0165	0.9585
24.0783	1.3798	27.0763	2.3643	-12.9923	-1.2053	17.8572	19.5521	745.578	-61.5519	330.0624	35.1421	565.2578	-0.0592	0.0182	-0.0073	-0.0462	0.0165	0.9585
24.0906	1.987	26.3033	2.5842	-12.8673	-1.0087	16.7574	21.9076	739.3063	-60.892	327.3365	33.3801	556.2007	-0.0592	0.0182	-0.0073	-0.0462	0.0165	0.9585
24.103	2.6763	25.1445	2.803	-12.6185	-0.77514	15.2813	24.3106	732.4443	-60.1568	324.3422	31.5794	546.8666	-0.0592	0.0182	-0.0073	-0.0462	0.0165	0.9585
24.1154	3.51	23.7876	2.9603	-12.3	-0.43986	13.6271	26.7241	725.1682	-59.3552	321.1508	29.7573	537.4426	-0.0592	0.0182	-0.0073	-0.0462	0.0165	0.9585
24.1277	4.5798	22.6831	3.0203	-12.0452	0.046878	12.2294	29.1003	717.618	-58.4913	317.8197	27.9283	528.0744	-0.0592	0.0182	-0.0073	-0.0462	0.0165	0.9585
24.1401	5.9883	22.5948	2.9157	-12.0897	0.76927	11.8125	31.3815	709.8988	-57.6015	314.3882	26.1401	518.881	-0.0592	0.0182	-0.0073	-0.0462	0.0165	0.9585
24.1524	7.8392	24.6731	2.6	-12.7926	1.7913	13.441	33.5469	702.0605	-56.7284	310.8694	24.426	509.9188	-0.0592	0.0182	-0.0073	-0.0462	0.0165	0.9585
24.1648	10.2061	30.4998	2.0282	-14.6505	3.1728	18.553	35.5584	694.066	-55.9225	307.2394	22.8329	501.166	-0.0592	0.0182	-0.0073	-0.0462	0.0165	0.9585
24.1771	13.0799	41.977	1.1998	-18.2619	4.9073	28.8967	37.3776	685.7654	-55.217	303.4257	21.4038	492.5173	-0.0592	0.0182	-0.0073	-0.0462	0.0165	0.9585
24.1895	16.3158	61.098	0.15753	-24.2543	6.903	46.3049	38.9096	676.8313	-54.6137	299.274	20.1838	483.7821	-0.0592	0.0182	-0.0073	-0.0462	0.0165	0.9585
24.2019	19.5058	89.4846	-0.95636	-33.1297	8.8913	72.3024	39.9886	666.6159	-54.0589	294.4991	19.2089	474.554	-0.0592	0.0182	-0.0073	-0.0462	0.0165	0.9585
24.2142	21.9206	127.5847	-1.8856	-45.0108	10.3987	107.3635	40.3874	654.2147	-53.4308	288.6972	18.4948	464.2835	-0.0592	0.0182	-0.0073	-0.0462	0.0165	0.9585
24.2266	22.4031	173.7059	-2.2047	-59.3264	10.6694	150.0638	39.8849	638.5449	-52.5689	281.3879	18.0376	452.2785	-0.0592	0.0182	-0.0073	-0.0462	0.0165	0.9585
24.2389	19.9941	223.5718	-1.3399	-74.6712	8.8868	196.6315	38.2834	618.6133	-51.3264	272.1345	17.8343	437.8835	-0.0592	0.0182	-0.0073	-0.0462	0.0165	0.9585
24.2513	14.9283	271.1636	1.4456	-89.0923	4.4473	241.5885	35.6125	593.9503	-49.6006	260.7349	17.8233	420.7563	-0.0592	0.0182	-0.0073	-0.0462	0.0165	0.9585
24.2636	8.0856	311.9031	6.0738	-101.1767	-2.2861	280.5372	32.1856	564.9008	-47.3603	247.3627	17.8523	401.0411	-0.0592	0.0182	-0.0073	-0.0462	0.0165	0.9585
24.276	0.40996	345.1189	11.6531	-110.8141	-10.1389	312.5334	28.4623	532.6465	-44.7466	232.5627	17.8142	379.3911	-0.0592	0.0182	-0.0073	-0.0462	0.0165	0.9585
24.2884	-7.4004	372.8854	17.4883	-118.7689	-18.1726	339.2616	24.9029	498.7522	-41.974	217.0551	17.6514	356.6766	-0.0592	0.0182	-0.0073	-0.0462	0.0165	0.9585
24.3007	-14.7746	398.1969	22.8079	-126.0728	-25.4469	363.2844	21.8368	464.5504	-39.1744	201.4674	17.2955	333.6354	-0.0592	0.0182	-0.0073	-0.0462	0.0165	0.9585
24.3131	-21.4088	423.5478	27.2504	-133.5427	-31.5257	386.8461	19.4677	430.7477	-36.322	186.1574	16.6216	310.617	-0.0592	0.0182	-0.0073	-0.0462	0.0165	0.9585
24.3254	-26.9756	450.1962	30.4733	-141.574	-36.0082	410.9825	17.8327	397.4648	-33.322	171.2067	15.5268	287.6581	-0.0592	0.0182	-0.0073	-0.0462	0.0165	0.9585
24.3378	-31.2893	478.2537	32.7106	-150.1428	-39.0835	435.8227	16.8076	364.2959	-30.0898	156.4602	13.9856	264.4529	-0.0592	0.0182	-0.0073	-0.0462	0.0165	0.9585
24.3501	-34.1738	507.1345	34.262	-158.9876	-40.9996	460.8283	16.1443	330.6639	-26.6061	141.6677	12.0728	240.6311	-0.0592	0.0182	-0.0073	-0.0462	0.0165	0.9585
24.3625	-35.6389	536.1037	35.7732	-167.7817	-42.3776	485.4418	15.5646	296.092	-22.9545	126.6066	9.9598	215.9156	-0.0592	0.0182	-0.0073	-0.0462	0.0165	0.9585
24.3749	-35.736	564.4541	37.634	-176.242	-43.6062	509.0632	14.757	260.4517	-19.2739	111.1975	7.8682	190.2813	-0.0592	0.0182	-0.0073	-0.0462	0.0165	0.9585
24.3872	-34.7189	591.6529	40.2346	-184.1666	-45.1387	531.315	13.4769	224.1382	-15.7504	95.578	6.0333	164.0748	-0.0592	0.0182	-0.0073	-0.0462	0.0165	0.9585
24.3996	-32.8649	617.4544	43.5605	-191.4984	-47.0578	552.0072	11.619	188.0274	-12.5635	80.0955	4.6308	137.96	-0.0592	0.0182	-0.0073	-0.0462	0.0165	0.9585
24.4119	-30.402	642.0211	47.4393	-198.3362	-49.2974	571.3319	9.2098	153.3182	-9.8564	65.2399	3.7487	112.8252	-0.0592	0.0182	-0.0073	-0.0462	0.0165	0.9585
24.4243	-27.4949	665.6679	51.4375	-204.8487	-51.5234	589.5767	6.4846	121.2902	-7.7056	51.5402	3.3534	89.5879	-0.0592	0.0182	-0.0073	-0.0462	0.0165	0.9585
24.4366	-24.3307	688.5197	55.2244	-211.1336	-53.4991	606.877	3.7222	92.9922	-6.0904	39.4353	3.3209	69.0221	-0.0592	0.0182	-0.0073	-0.0462	0.0165	0.9585
24.449	-21.1139	710.3549	58.5541	-217.1596	-55.0519	623.085	1.2138	68.9711	-4.9179	29.167	3.477	51.5057	-0.0592	0.0182	-0.0073	-0.0462	0.0165	0.9585
24.4614	-17.985	730.6552	61.3557	-222.7757	-56.1513	637.7825	-0.85803	49.3558	-4.0602	20.7905	3.6632	37.1622	-0.0592	0.0182	-0.0073	-0.0462	0.0165	0.9585
24.4737	-15.094	748.7894	63.6265	-227.777	-56.8278	650.49	-2.3796	33.8736	-3.3897	14.1955	3.7529	25.7876	-0.0592	0.0182	-0.0073	-0.0462	0.0165	0.9585
24.4861	-12.4676	764.1897	65.398	-231.9662	-57.1219	660.7802	-3.3324	22.0647	-2.8124	9.1842	3.6774	17.0748	-0.0592	0.0182	-0.0073	-0.0462	0.0165	0.9585
24.4984	-10.1478	776.439	66.7451	-235.1859	-57.1138	668.3967	-3.6786	13.3845	-2.2685	5.5204	3.3919	10.6337	-0.0592	0.0182	-0.0073	-0.0462	0.0165	0.9585
24.5108	-8.0968	785.3293	67.7158	-237.3458	-56.8403	673.2084	-3.4823	7.2789	-1.7353	2.9637	2.9044	6.0674	-0.0592	0.0182	-0.0073	-0.0462	0.0165	0.9585
24.5231	-6.314	790.8488	68.4174	-238.4231	-56.4018	675.2755	-2.8868	3.2686	-1.2274	1.3014	2.2782	3.0259	-0.0592	0.0182	-0.0073	-0.0462	0.0165	0.9585
24.5355	-4.7282	793.0979	68.8662	-238.4491	-55.8055	674.6882	-2.1267	0.93634	-0.7963	0.34516	1.642	1.2261	-0.0592	0.0182	-0.0073	-0.0462	0.0165	0.9585
24.5479	-3.2856	792.2973	69.1225	-237.5053	-55.105	671.6315	-1.396	-0.172	-0.4655	-0.10023	1.085	0.34832	-0.0592	0.0182	-0.0073	-0.0462	0.0165	0.9585
24.5602	-1.8642	788.795	69.1193	-235.7322	-54.2229	666.3437	-0.77295	-0.46138	-0.23283	-0.20835	0.64188	0.099154	-0.0592	0.0182	-0.0073	-0.0462	0.0165	0.9585
